<?xml version="1.0" encoding="UTF-8"?>
<svg id="Layer_1" xmlns="http://www.w3.org/2000/svg" version="1.1" viewBox="0 0 382.5 148.8">
  <!-- Generator: Adobe Illustrator 30.4.0, SVG Export Plug-In . SVG Version: 2.1.4 Build 226)  -->
  <defs>
    <style>
      .st0 {
        fill: currentColor;
      }
    </style>
  </defs>
  <path fill="currentColor" d="M50.6,47.8l2.7-9.5L45.3,0H5.7l8.5,9.7L0,68h22.8l8.4-34.2,7.4,34.2h21.3l19.2-28.3-6.9,28.3h22.8c5.5-22.7,11.1-45.4,16.6-68h-27.8c-11.1,15.9-22.2,31.9-33.2,47.8Z"/>
  <path fill="currentColor" d="M193.6,51l8.3-34c2.2-9.3-3.5-17-12.8-17h-73.6l8.5,9.7-3.1,12.5-7,28.8c-2.2,9.3,3.5,17,12.8,17h45.8c9.3,0,18.9-7.7,21.2-17ZM168.1,51h-28.7c-1.5,0-2.3-1.2-2-2.6l6.4-26.2-5.6-5.2h38.3c1.4,0,2.2,1.2,1.9,2.6l-7,28.8c-.4,1.5-1.8,2.6-3.3,2.6Z"/>
  <path fill="currentColor" d="M369.2,0h-156.8l-4.2,17h29.4l-12.4,51h22.8c1.8-7.7,9.3-38.2,11.2-45.9l-5.6-5.2h38L295.7,0l8.4,9.6-3.1,12.5-7,28.8c-.2,1-.4,1.9-.4,2.9l-11.2,3.6h-.8c0,.1.3-1,.3-1l1.6-4.8c.2-.4.3-.8.2-1.2.1-.8-.1-1.7-1-2.1-.8-.5-1.5-.4-2.4.1-.5.3-.9.9-1.1,1.5-.8,2.5-1.7,5.1-2.4,7.7-.5,1.8-.5,1.7-2.3,2.4-4,1.5-8,2.9-11.9,4.5-.6.2-1.3.5-1.9.3-.3,0-.5,0-.8.1-.6.4-1.3.8-1.9,1.4-.7.6-.6,1.8.2,2.6.6.6,1.3.8,2.3.5.8-.3,1.5-.4,2.4-.8l8-2.9,3.3-1.2c-.2.4-.3.8-.5,1.1-4.1,10-8.4,20-13,29.9-2.7,5.6-5.3,11.1-8.4,16.5-1.1,2.2-2.4,4.2-3.9,6.1-.5.8-1.4,1.4-2.1,2.1-.8.5-1.4.5-2.2-.3-.3-.2-.5-.6-.7-.9-.4-.7-.8-1.6-1.1-2.4-.8-2.3-.9-4.6-.9-7,.2-2.3.3-4.6.8-6.9.2.2.3.2.3.3.7,1.1,1.6,1.5,2.9,1.3.8-.1,1.5-.5,2.1-1,1.1-.8,2-1.7,2.8-2.6,2.7-3.2,5-6.7,6.9-10.4,1.5-3.2,2.8-6.4,3.2-10.1.1-1.6.3-3.2-.4-4.8-1-2.9-3.6-4.1-6.4-3.1-1.9.7-3.3,1.9-4.6,3.3-1.7,1.9-3.1,4-4.2,6.1-1.9,3.6-3.3,7.3-4.5,11.2-1.6,4.9-2.8,9.9-3.1,15-.2,3.5,0,7,1.2,10.6.6,1.8,1.4,3.5,2.9,4.7,1.1,1,2.4,1.6,4,1.6,1.3,0,2.6-.6,3.6-1.4,1.2-.7,2.1-1.8,3-3,2.3-3,4.1-6.4,6-9.8,3.9-7.7,7.5-15.5,11-23.2l.5-1c0,.4,0,.7,0,1.1-.7,3.8-1.5,7.7-2.1,11.6-1,6.5-1.9,13.2-2.2,19.8-.1,1.7-.2,3.4.2,5,.1.9.5,1.6,1.1,2.4.5.7,1.3.8,2.2.6.6-.4,1.2-1,1-1.9.1-.2,0-.4,0-.7-.2-1-.4-2.2-.3-3.3.1-3.3.2-6.7.7-10.1,1.4-12.5,3.5-24.9,6.5-37.1l2.7-10.4c.2-.6.4-.9,1-1l1.3-.5,12.1-3.8c1.3,5.7,6.2,9.8,12.9,9.8h17.2c-3.2,4-5.9,8.3-8.4,12.8l-.8,1.1c-1.1,1.9-2.3,4-3.6,5.8-3.8,5.7-8.3,10.8-12.8,15.8-1.4,1.4-3,2.6-4.6,3.8-.9.8-2.2,1.2-3.4,1.3-1,.3-1.7-.1-2.3-1-.7-1.1-.9-2.1-.7-3.5,1.5.4,2.6-.2,3.7-1l3-2.2c4.3-3.5,8.2-7.2,11.2-11.9,1.5-2.2,2.7-4.6,3.1-7.1.2-2,.1-4-1.1-5.8-1.1-1.7-2.7-2.5-4.8-2.3-1.9.3-3.6,1-4.9,2.3-2.3,2.1-4.5,4.2-6.2,6.9-3,4.9-5.5,10.1-7.3,15.5-.6,2.2-1,4.4-1,6.7,0,2,.6,3.6,1.8,5.2,1.4,1.9,3.2,2.8,5.6,2.5,2,0,3.9-.8,5.4-1.9,2.7-1.6,5-3.7,7-6.1,2.8-3.4,5.7-6.6,8.3-10,.7-.8,1.3-1.6,2-2.5.6.8,1.5,1.4,2.7,1.6.7.2,1.5.2,2.1,0l4.9-1.2c1.5-.4,2.9-1,4.5-.9.5,0,1.1,0,1.7.7l-.8.8-9.6,10.2c-2.2,2.5-4.3,5.1-6.1,8-.7,1.3-1.4,2.6-1.8,4.2-.2,1.1-.3,2.2-.1,3.3.4,1.7,1.5,2.8,3.3,3,1.1.2,2.1,0,3.1-.4,1.7-.7,3.2-1.7,4.6-3,4.9-4.4,8.5-9.6,11-15.7,1.1-3,1.8-5.9,1.7-9,0-.3,0-.5.3-.7.2-.4.6-.6.8-.9,5.1-4.7,7.7-6.3,10.4-12.6l.7-2.4c.3-.8-.4-1.7-1.2-1.9-.9-.4-1.7-.1-2.3.6-.3.6-.6,1-.8,1.6-2.3,6.4-8.1,10-9.2,11.2l-.7.6-1.1-.8c-1.5-1-3.1-1.2-5-1-2.2.2-4.5,1-6.6,1.6-.9.1-1.9.4-2.8.5,0-.3,0-.5,0-.7.1-.8.3-1.5.6-2.2.9-2.4,2.3-4.6,3.5-6.8,2.5-4.3,5.4-8.3,8.6-12.1h23.2c9.3,0,18.9-7.7,21.2-17l8.3-34c2.2-9.3-3.5-17-12.8-17ZM243,99.9c1.4-5.9,3.3-11.6,6.2-17,.9-1.7,2.1-3.4,3.6-4.8.6-.6,1.3-1.1,2.1-1.5.7-.4,1.2-.2,1.3.7.1.8.1,1.6,0,2.4-.3,2.4-1.1,4.8-2,7.1-1.6,4-3.9,7.6-6.6,10.9l-.5.5-1.1-.2c-.5,0-1,.3-1.4.6l-1.8,1.9c0-.3,0-.4,0-.5ZM288.4,99.4c.9-3.5,2.5-6.5,4-9.7l1.1-2c1.6-3.2,4.1-5.7,6.6-8.1.7-.8,1.5-1.2,2.4-1.3.9-.3,1.2,0,1.5.8.3.9.2,1.8,0,2.8-.3,1.6-1,3.1-1.8,4.4-2.5,4-5.8,7.3-9.5,10.3-1.1,1.1-2.4,2.1-3.7,3.3l-.7.5s-.1,0-.2-.1l.3-.8ZM329.2,98.6q.1,0,.3,0l-.7,2.1c-1.5,4.4-4,8.2-7,11.8-1.4,1.4-2.7,3-4.3,4l-2.3,1.4h-.6c0-.3,0-.7.2-1,.3-.8.5-1.7.9-2.4,1.1-2.2,2.5-4.1,4.2-6l9-9.8c.1,0,.2-.2.2-.2ZM358.5,19.6l-7,28.8c-.4,1.5-1.8,2.6-3.3,2.6h-28.7c-1.5,0-2.3-1.2-2-2.6l6.4-26.2-5.6-5.2h38.3c1.4,0,2.2,1.2,1.9,2.6Z"/>
  <path fill="currentColor" d="M211.8,57.9l.4-1.5c.3-1.6-1.2-2.9-2.8-2.3-.8.3-1.1.7-1.4,1.4l-1.1,3-4.2,13.7c-2.7,9.1-5.3,18.2-7.6,27.5-2.1,8.6-3.8,17.4-5.2,26.3l-.3.8h-.3s-.1-.7-.1-.7l-1.4-6.1-3.3-13.3-2.6-9.8c-1-3.4-1.9-6.7-3-10l-2.6-8.5c-.3-.9-.7-1.7-1.2-2.5-.9-1.3-2.9-1.2-3.7,0-.5.9-1.3,1.9-1.3,3.2l-.3,1.5-1,3.4-1.8,9.1c-3.1,14.6-5.2,29.2-5.9,44.1-.1,2.4,0,4.9,0,7.4,0,.9.2,1.8.6,2.7.1.8.7,1.2,1.6,1.3,1.1.2,1.8-.2,2.3-1.1.7-.8.6-1.8,0-2.7-.2-.4-.4-.9-.3-1.3v-3.6c.2-5.6.7-11.2,1.2-16.7,1.4-13.1,3.8-26.2,6.8-39l.2-1c.2.6.4.9.5,1.2l3.1,10.6,3.1,11.3c1,3.3,1.7,6.6,2.5,9.9,1.1,4.3,2.1,8.7,3.1,13l1.5,6.8c.4,1.7.8,3.2.7,4.9,0,1.1,0,2.3.7,3.2s1.7,1.3,2.5.9c.8-.3,1.4-1.2,1.2-2.3-.1-.6-.2-1.2-.2-1.7,0-1.7,0-3.5.3-5.1,1.1-8.7,2.7-17.2,4.4-25.7,2.2-10.7,5.2-21.4,8.2-31.8,2-7,4.1-14,6.6-20.8Z"/>
  <path fill="currentColor" d="M214.2,77.8c.2-.3.1-.8.2-1-.4-1.5-2-2.2-3.1-1.3-.5.3-.8.8-1.1,1.3l-2.5,4c-.3.3-.5.8-.7,1.2-.4.7-.3,1.6.4,2.2.6.6,1.4.7,2.2.2.5-.2.8-.5,1.2-1l2.4-3.2,1.2-2.3Z"/>
  <path fill="currentColor" d="M209.2,90.7c-.9-.4-1.5-.3-2.2.1-.5.5-.9.9-1.1,1.5-.3,1.1-.7,2.1-.9,3.2-1.6,6.5-2.5,13-3,19.6-.2,2-.4,4.1-.1,6.4l.2,1.2c.3.9.8,1.5,1.6,1.9.7.4,1.5.4,2.2-.2.7-.6.8-1.5.4-2.2-.4-1-.5-2-.4-3.1.2-5.2.8-10.4,1.7-15.4.5-3.1.9-6.3,2.3-9.2l.2-1.1c0-.3.2-.6.1-.8,0-.9-.4-1.5-1.1-1.8Z"/>
  <path fill="currentColor" d="M232.7,120.6c.8-7,2.1-14,3.4-21,1.1-4.7,1.7-10,2.6-15.3.2-1.4,0-2.7-.4-4.1,0-1.9-1.5-2.7-3.1-2.1-.6.1-1.3.3-1.7.7-.7.6-2,1.7-2.5,2.5-4.1,5.9-8.3,12.7-12,19-.4.9-.8,1.9-1.3,2.7v-.3s1.4-8.8,1.4-8.8c0-.3,0-.4.2-.6.6-.9.5-2.1-.3-2.9-.6-.7-1.6-.7-2.7,0-.7.6-.9,1.5-1.1,2.3-1.8,6.6-3,13.7-3.8,20.8-.2,1.1-.2,2,0,3.1.2,1.2,1.1,1.9,2.3,1.9,1.1,0,1.6-.7,2.2-1.3l.6-1.2c2.2-5.1,3.9-10.1,6.9-14.3,3.3-6.3,6.6-11.7,10.6-17.6l.5-.3q0,.3,0,.4c-.1,1.6-.9,3.6-1.1,5.5-1.4,9-3.1,17.9-4.3,26.4-.8,4.9-1,9.7-1.4,14.7,0,1.1.2,2.1.1,3.2.2,1.3,1.7,2,2.8,1.5,1.2-.5,2.1-1.7,2.6-3-.2-.5-.4-1-.7-1.2-.3-.3-.5-.7-.5-1.1,0-.4-.1-.6,0-.9l.8-8.9Z"/>
  <path fill="currentColor" d="M283.5,72.1c.5-.2.8-.5,1.2-1l2.4-3.2,1.2-2.3c.2-.3.1-.8.2-1-.4-1.5-2-2.2-3.1-1.3-.5.3-.8.8-1.1,1.2l-2.5,4c-.3.3-.5.8-.7,1.2-.4.7-.3,1.6.4,2.2s1.4.7,2.2.2Z"/>
  <path fill="currentColor" d="M281.7,91.4c.5-3.1,1-6.3,2.3-9.2l.2-1.1c0-.3.2-.6.1-.8,0-.9-.4-1.5-1.1-1.8-.9-.4-1.5-.3-2.2.1-.5.5-.9.9-1.1,1.5-.3,1.1-.7,2.1-.9,3.2-1.6,6.5-2.5,13-3,19.6-.2,2-.4,4.1-.1,6.4l.2,1.2c.3.9.8,1.5,1.6,1.9.7.4,1.5.4,2.2-.2.7-.6.8-1.5.4-2.2-.4-1-.5-2-.4-3.1.2-5.2.8-10.4,1.7-15.4Z"/>
</svg>